{
  "accessors": [
    {
      "bufferView": 2,
      "componentType": 5126,
      "count": 690,
      "max": [
        10.370370864868164,
        4.266666889190674,
        21.925926208496094
      ],
      "min": [
        -10.370370864868164,
        -4.266666889190674,
        0.0
      ],
      "type": "VEC3"
    },
    {
      "bufferView": 2,
      "byteOffset": 8280,
      "componentType": 5126,
      "count": 690,
      "max": [
        1.0,
        0.9984697699546814,
        1.0
      ],
      "min": [
        -1.0,
        -1.0,
        -0.9980200529098511
      ],
      "type": "VEC3"
    },
    {
      "bufferView": 1,
      "componentType": 5126,
      "count": 690,
      "max": [
        1.0035290718078613,
        1.0376718044281006
      ],
      "min": [
        -0.19431844353675842,
        -0.1142786294221878
      ],
      "type": "VEC2"
    },
    {
      "bufferView": 0,
      "componentType": 5125,
      "count": 1548,
      "type": "SCALAR"
    },
    {
      "bufferView": 2,
      "byteOffset": 16560,
      "componentType": 5126,
      "count": 1575,
      "max": [
        12.197016716003418,
        1.5911351442337036,
        6.8458452224731445
      ],
      "min": [
        -1.494022011756897,
        -1.497018814086914,
        -16.32569122314453
      ],
      "type": "VEC3"
    },
    {
      "bufferView": 2,
      "byteOffset": 35460,
      "componentType": 5126,
      "count": 1575,
      "max": [
        0.9998096823692322,
        0.9997467994689941,
        0.99793541431427
      ],
      "min": [
        -1.0,
        -0.9998180866241455,
        -1.0
      ],
      "type": "VEC3"
    },
    {
      "bufferView": 1,
      "byteOffset": 5520,
      "componentType": 5126,
      "count": 1575,
      "max": [
        0.9979389905929565,
        1.0
      ],
      "min": [
        -0.017441868782043457,
        0.0
      ],
      "type": "VEC2"
    },
    {
      "bufferView": 0,
      "byteOffset": 6192,
      "componentType": 5125,
      "count": 6438,
      "type": "SCALAR"
    },
    {
      "bufferView": 2,
      "byteOffset": 54360,
      "componentType": 5126,
      "count": 25,
      "max": [
        3.4763307571411133,
        6.508874893188477,
        0.0
      ],
      "min": [
        -3.4763307571411133,
        -6.508874893188477,
        0.0
      ],
      "type": "VEC3"
    },
    {
      "bufferView": 2,
      "byteOffset": 54660,
      "componentType": 5126,
      "count": 25,
      "max": [
        0.0,
        0.0,
        1.0
      ],
      "min": [
        0.0,
        0.0,
        1.0
      ],
      "type": "VEC3"
    },
    {
      "bufferView": 1,
      "byteOffset": 18120,
      "componentType": 5126,
      "count": 25,
      "max": [
        1.0,
        1.0
      ],
      "min": [
        0.0,
        0.0
      ],
      "type": "VEC2"
    },
    {
      "bufferView": 0,
      "byteOffset": 31944,
      "componentType": 5125,
      "count": 96,
      "type": "SCALAR"
    }
  ],
  "asset": {
    "extras": {
      "author": "George Sims (https://sketchfab.com/BookBoy)",
      "license": "CC-BY-4.0 (http://creativecommons.org/licenses/by/4.0/)",
      "source": "https://sketchfab.com/3d-models/gold-lock-improved-d1e3a58799b146e4af6496ca9b8fba41",
      "title": "Gold Lock Improved"
    },
    "generator": "Sketchfab-12.66.0",
    "version": "2.0"
  },
  "bufferViews": [
    {
      "buffer": 0,
      "byteLength": 32328,
      "name": "floatBufferViews",
      "target": 34963
    },
    {
      "buffer": 0,
      "byteLength": 18320,
      "byteOffset": 32328,
      "byteStride": 8,
      "name": "floatBufferViews",
      "target": 34962
    },
    {
      "buffer": 0,
      "byteLength": 54960,
      "byteOffset": 50648,
      "byteStride": 12,
      "name": "floatBufferViews",
      "target": 34962
    }
  ],
  "buffers": [
    {
      "byteLength": 105608,
      "uri": "scene.bin"
    }
  ],
  "extensionsUsed": [
    "KHR_materials_clearcoat"
  ],
  "materials": [
    {
      "doubleSided": true,
      "extensions": {
        "KHR_materials_clearcoat": {
          "clearcoatFactor": 1.0,
          "clearcoatRoughnessFactor": 0.0
        }
      },
      "name": "01_-_Default",
      "pbrMetallicRoughness": {
        "baseColorFactor": [
          0.8103699510436352,
          0.3676178078294391,
          0.0,
          1.0
        ],
        "metallicFactor": 0.8858612804878049
      }
    },
    {
      "doubleSided": true,
      "name": "07_-_Default",
      "pbrMetallicRoughness": {
        "baseColorFactor": [
          0.25730578540798066,
          0.25483110099293144,
          0.25483110099293144,
          1.0
        ],
        "roughnessFactor": 0.0
      }
    },
    {
      "doubleSided": true,
      "name": "03_-_Default",
      "pbrMetallicRoughness": {
        "baseColorFactor": [
          0.0,
          0.0,
          0.0,
          1.0
        ],
        "metallicFactor": 0.0,
        "roughnessFactor": 0.8929713596
      }
    }
  ],
  "meshes": [
    {
      "name": "Box001_01 - Default_0",
      "primitives": [
        {
          "attributes": {
            "NORMAL": 1,
            "POSITION": 0,
            "TEXCOORD_0": 2
          },
          "indices": 3,
          "material": 0,
          "mode": 4
        }
      ]
    },
    {
      "name": "Cylinder001_07 - Default_0",
      "primitives": [
        {
          "attributes": {
            "NORMAL": 5,
            "POSITION": 4,
            "TEXCOORD_0": 6
          },
          "indices": 7,
          "material": 1,
          "mode": 4
        }
      ]
    },
    {
      "name": "Plane001_03 - Default_0",
      "primitives": [
        {
          "attributes": {
            "NORMAL": 9,
            "POSITION": 8,
            "TEXCOORD_0": 10
          },
          "indices": 11,
          "material": 2,
          "mode": 4
        }
      ]
    }
  ],
  "nodes": [
    {
      "children": [
        1
      ],
      "matrix": [
        1.0,
        0.0,
        0.0,
        0.0,
        0.0,
        2.220446049250313e-16,
        -1.0,
        0.0,
        0.0,
        1.0,
        2.220446049250313e-16,
        0.0,
        0.0,
        0.0,
        0.0,
        1.0
      ],
      "name": "Sketchfab_model"
    },
    {
      "children": [
        2
      ],
      "matrix": [
        1.0,
        0.0,
        0.0,
        0.0,
        0.0,
        0.0,
        1.0,
        0.0,
        0.0,
        -1.0,
        0.0,
        0.0,
        0.0,
        0.0,
        0.0,
        1.0
      ],
      "name": "ce5a70612dd54c9395d0923e17f8c296.fbx"
    },
    {
      "children": [
        3,
        5,
        7
      ],
      "name": "RootNode"
    },
    {
      "children": [
        4
      ],
      "matrix": [
        1.0,
        0.0,
        0.0,
        0.0,
        0.0,
        2.220446049250313e-16,
        -1.0,
        0.0,
        0.0,
        1.0,
        2.220446049250313e-16,
        0.0,
        -0.2962965965270996,
        0.0,
        0.2962961196899414,
        1.0
      ],
      "name": "Box001"
    },
    {
      "mesh": 0,
      "name": "Box001_01 - Default_0"
    },
    {
      "children": [
        6
      ],
      "matrix": [
        1.0,
        0.0,
        0.0,
        0.0,
        0.0,
        2.220446049250313e-16,
        -1.0,
        0.0,
        0.0,
        1.0,
        2.220446049250313e-16,
        0.0,
        -5.467496871948242,
        34.379119873046875,
        0.33331769704818726,
        1.0
      ],
      "name": "Cylinder001"
    },
    {
      "mesh": 1,
      "name": "Cylinder001_07 - Default_0"
    },
    {
      "children": [
        8
      ],
      "matrix": [
        1.0,
        0.0,
        0.0,
        0.0,
        0.0,
        0.9999999999999867,
        1.6292068405476743e-07,
        0.0,
        0.0,
        -1.6292068405476743e-07,
        0.9999999999999867,
        0.0,
        0.1463579684495926,
        11.188552856445313,
        0.8546404242515564,
        1.0
      ],
      "name": "Plane001"
    },
    {
      "mesh": 2,
      "name": "Plane001_03 - Default_0"
    }
  ],
  "scene": 0,
  "scenes": [
    {
      "name": "Sketchfab_Scene",
      "nodes": [
        0
      ]
    }
  ]
}
